<svg width="350" height="162" viewBox="0 0 350 162" fill="none" xmlns="http://www.w3.org/2000/svg">
<path d="M49.7477 0.232202C46.9477 7.29887 20.681 91.1655 8.81437 130.899C4.41437 145.966 0.414371 159.299 0.0143714 160.632C-0.385629 161.966 7.61437 156.366 17.7477 148.232C32.8144 135.966 49.081 124.499 81.6144 103.299C87.481 99.4322 61.481 110.499 42.9477 119.832C34.9477 123.832 28.681 126.366 29.081 125.299C29.3477 124.366 33.2144 111.966 37.6144 97.6989L45.481 71.8322L47.7477 82.3655C49.081 88.0989 50.5477 94.3655 50.9477 96.2322C51.6144 99.0322 53.081 96.7655 60.8144 81.5655C65.881 71.6989 70.0144 64.2322 70.0144 64.8989C70.1477 65.6989 68.681 74.0989 66.8144 83.5655C64.9477 93.1655 63.481 101.299 63.481 101.832C63.481 103.032 79.7477 96.3655 81.6144 94.4989C82.9477 93.0322 96.9477 16.0989 96.8144 10.7655C96.8144 8.76554 95.6144 8.76554 85.2144 11.4322C73.6144 14.3655 73.481 14.4989 70.5477 20.3655C66.9477 27.6989 66.8144 28.0989 70.1477 27.2989L72.9477 26.4989L70.281 33.0322C68.9477 36.6322 65.881 43.6989 63.7477 48.7655L59.881 57.9655L57.481 42.0989C52.5477 8.89886 50.5477 -1.7678 49.7477 0.232202Z" fill="white"/>
<path d="M296.281 15.4989C295.081 24.1655 293.081 37.4989 291.881 45.0989L289.748 58.8322L285.881 49.7655C283.614 44.6989 280.681 37.6322 279.348 34.0322L276.681 27.4989L279.481 28.2989C282.814 29.0989 282.814 28.6989 279.081 21.2322C276.148 15.3655 276.014 15.3655 264.548 12.4322C254.014 9.76554 252.814 9.76554 252.814 11.7655C252.681 17.0989 266.681 94.0322 268.014 95.4989C269.881 97.3655 286.148 104.032 286.148 102.832C286.148 102.299 284.681 94.1655 282.814 84.5655C280.948 75.0989 279.481 66.6989 279.614 65.8989C279.614 65.2322 283.748 72.6989 288.814 82.5655C296.548 97.7655 298.014 100.032 298.681 97.2322C299.081 95.3655 300.548 89.0989 301.881 83.3655L304.148 72.8322L312.014 98.6989C316.414 112.966 320.281 125.366 320.548 126.299C320.948 127.366 314.681 124.832 306.681 120.832C288.148 111.499 262.148 100.432 268.014 104.299C300.548 125.499 316.814 136.966 331.881 149.232C342.014 157.366 350.014 162.966 349.614 161.632C349.214 160.299 344.014 142.966 338.148 123.232C332.281 103.366 322.148 70.9655 315.881 51.2322C309.614 31.3655 303.614 12.1655 302.548 8.56554C301.348 4.8322 300.148 1.36554 299.614 0.832202C299.081 0.298869 297.614 6.8322 296.281 15.4989Z" fill="white"/>
<path d="M155.081 18.1655C154.548 18.5655 154.148 20.2989 154.148 21.7655C154.148 23.3655 153.481 26.9655 152.548 29.8989L151.081 35.2322L149.215 26.8322L147.348 18.5655H140.148C136.148 18.5655 132.548 19.2322 132.148 19.8989C131.748 20.6989 132.948 28.4322 134.948 37.2322C138.415 52.0322 138.815 53.2322 141.748 53.2322C143.481 53.2322 144.815 53.4989 144.815 53.8989C144.815 55.2322 137.481 69.2322 136.815 69.2322C136.415 69.2322 134.015 58.5656 131.615 45.4989C129.215 32.5655 126.948 21.4989 126.681 21.0989C126.281 20.2989 102.015 23.6322 101.081 24.5655C100.415 25.2322 91.2146 77.4989 91.7479 77.8989C92.0146 78.1656 95.3479 77.6322 99.3479 76.6989C104.548 75.4989 106.948 74.2989 107.881 72.1656C108.681 70.5656 109.881 69.2322 110.681 69.2322C111.481 69.2322 113.481 68.8322 115.215 68.4322C117.615 67.7656 118.148 68.1656 118.148 70.5656C118.148 73.2322 118.681 73.3656 123.215 72.6989C127.348 72.0322 151.615 69.3656 154.281 69.2322C156.948 69.2322 168.548 36.2989 170.681 22.8322L171.481 17.2322H163.748C159.481 17.2322 155.481 17.6322 155.081 18.1655ZM115.881 57.4989C115.615 58.1656 114.148 58.5656 112.681 58.5656C110.415 58.5656 110.015 57.8989 110.681 54.8322C111.081 52.8322 111.748 48.5656 112.281 45.2322L113.348 39.2322L114.815 47.8989C115.615 52.6989 116.148 56.9656 115.881 57.4989Z" fill="white"/>
<path d="M174.148 29.8989C174.148 40.2989 173.748 42.5656 172.148 42.5656C170.014 42.5656 168.414 45.6322 166.814 52.8322C166.014 57.0989 166.148 57.2322 170.014 57.2322C174.014 57.2322 174.148 57.3656 174.148 63.2322V69.2322H182.148H190.148V63.2322C190.148 57.4989 190.281 57.2322 194.148 57.2322C198.014 57.2322 198.148 57.4989 198.148 63.0989C198.148 69.7656 199.214 70.5656 208.281 70.5656H214.148V44.5656V18.5655H210.281C208.148 18.5655 204.548 18.1655 202.281 17.7655L198.148 16.8322V30.1655V43.4989L194.148 42.8322L190.148 42.2989V29.7655V17.2322H182.148H174.148V29.8989Z" fill="white"/>
<path d="M218.148 26.4322C218.148 30.1655 218.815 33.2322 219.481 33.2322C220.281 33.2322 220.815 40.5655 220.815 52.5655C220.815 63.2322 221.348 71.8988 222.015 71.8988C224.548 71.8988 253.615 77.0988 256.015 78.0322C258.148 78.8322 258.281 78.2988 257.481 72.4322C256.148 64.0322 255.348 63.0988 247.748 62.0322C238.281 60.5655 236.815 59.8988 236.815 56.9655C236.815 54.1655 236.681 54.1655 250.548 56.8322C254.548 57.6322 254.815 56.8322 253.348 49.4988C252.548 45.6322 251.881 45.2322 244.681 43.7655C238.815 42.5655 236.815 41.6322 236.815 39.8988C236.815 36.4322 237.748 36.1655 244.281 37.4988C247.615 38.2988 250.548 38.5655 250.948 38.1655C251.215 37.8988 250.948 34.5655 250.148 30.9655L248.681 24.1655L241.081 22.6988C236.948 21.8988 230.015 20.8322 225.881 20.4322L218.148 19.4988V26.4322Z" fill="white"/>
<path d="M139.48 75.6988C126.947 76.8988 95.4805 81.8322 92.1472 83.1655C90.5472 83.6988 87.8805 93.8322 89.0805 94.8988C89.2138 95.0322 95.2138 94.2322 102.147 92.7655C109.08 91.4322 120.547 89.6988 127.48 88.7655C139.88 87.2988 140.28 87.1655 147.347 80.7655C151.347 77.1655 154.147 74.3655 153.347 74.3655C152.68 74.4988 146.414 75.1655 139.48 75.6988Z" fill="white"/>
<path d="M198.948 77.0989C201.748 79.0989 205.348 82.1655 206.681 83.7655C208.281 85.4989 210.815 86.5655 213.615 86.5655C218.415 86.5655 255.081 92.6989 258.815 94.1655C260.948 94.9655 261.081 94.4322 260.281 89.0989C259.748 85.8989 258.681 82.9655 257.881 82.4322C254.948 80.5655 206.015 73.2322 196.281 73.2322C194.415 73.2322 195.081 74.2989 198.948 77.0989Z" fill="white"/>
</svg>
