<svg width="350" height="163" viewBox="0 0 350 163" fill="none" xmlns="http://www.w3.org/2000/svg">
<path d="M49.9333 0.66665C47.1333 7.73332 20.8666 91.6 8.99992 131.333C4.59992 146.4 0.599918 159.733 0.199918 161.067C-0.200082 162.4 7.79992 156.8 17.9333 148.667C32.9999 136.4 49.2666 124.933 81.7999 103.733C87.6666 99.8666 61.6666 110.933 43.1333 120.267C35.1333 124.267 28.8666 126.8 29.2666 125.733C29.5333 124.8 33.3999 112.4 37.7999 98.1333L45.6666 72.2666L47.9333 82.8C49.2666 88.5333 50.7333 94.8 51.1333 96.6666C51.7999 99.4666 53.2666 97.2 60.9999 82C66.0666 72.1333 70.1999 64.6666 70.1999 65.3333C70.3333 66.1333 68.8666 74.5333 66.9999 84C65.1333 93.6 63.6666 101.733 63.6666 102.267C63.6666 103.467 79.9333 96.8 81.7999 94.9333C83.1333 93.4666 97.1333 16.5333 96.9999 11.2C96.9999 9.19998 95.7999 9.19998 85.3999 11.8667C73.7999 14.8 73.6666 14.9333 70.7333 20.8C67.1333 28.1333 66.9999 28.5333 70.3333 27.7333L73.1333 26.9333L70.4666 33.4666C69.1333 37.0666 66.0666 44.1333 63.9333 49.2L60.0666 58.4L57.6666 42.5333C52.7333 9.33331 50.7333 -1.33335 49.9333 0.66665Z" fill="black"/>
<path d="M296.467 15.9333C295.267 24.6 293.267 37.9333 292.067 45.5333L289.933 59.2666L286.067 50.2C283.8 45.1333 280.867 38.0666 279.533 34.4666L276.867 27.9333L279.667 28.7333C283 29.5333 283 29.1333 279.267 21.6667C276.333 15.8 276.2 15.8 264.733 12.8667C254.2 10.2 253 10.2 253 12.2C252.867 17.5333 266.867 94.4666 268.2 95.9333C270.067 97.8 286.333 104.467 286.333 103.267C286.333 102.733 284.867 94.6 283 85C281.133 75.5333 279.667 67.1333 279.8 66.3333C279.8 65.6666 283.933 73.1333 289 83C296.733 98.2 298.2 100.467 298.867 97.6666C299.267 95.8 300.733 89.5333 302.067 83.8L304.333 73.2666L312.2 99.1333C316.6 113.4 320.467 125.8 320.733 126.733C321.133 127.8 314.867 125.267 306.867 121.267C288.333 111.933 262.333 100.867 268.2 104.733C300.733 125.933 317 137.4 332.067 149.667C342.2 157.8 350.2 163.4 349.8 162.067C349.4 160.733 344.2 143.4 338.333 123.667C332.467 103.8 322.333 71.4 316.067 51.6666C309.8 31.8 303.8 12.6 302.733 8.99998C301.533 5.26665 300.333 1.79998 299.8 1.26665C299.267 0.733317 297.8 7.26665 296.467 15.9333Z" fill="black"/>
<path d="M155.267 18.6C154.733 19 154.333 20.7333 154.333 22.2C154.333 23.8 153.667 27.4 152.733 30.3333L151.267 35.6667L149.4 27.2667L147.533 19H140.333C136.333 19 132.733 19.6667 132.333 20.3333C131.933 21.1333 133.133 28.8667 135.133 37.6667C138.6 52.4667 139 53.6667 141.933 53.6667C143.667 53.6667 145 53.9333 145 54.3333C145 55.6667 137.667 69.6667 137 69.6667C136.6 69.6667 134.2 59 131.8 45.9333C129.4 33 127.133 21.9333 126.867 21.5333C126.467 20.7333 102.2 24.0667 101.267 25C100.6 25.6667 91.4001 77.9333 91.9334 78.3333C92.2001 78.6 95.5334 78.0667 99.5334 77.1333C104.733 75.9333 107.133 74.7333 108.067 72.6C108.867 71 110.067 69.6667 110.867 69.6667C111.667 69.6667 113.667 69.2667 115.4 68.8667C117.8 68.2 118.333 68.6 118.333 71C118.333 73.6667 118.867 73.8 123.4 73.1333C127.533 72.4667 151.8 69.8 154.467 69.6667C157.133 69.6667 168.733 36.7333 170.867 23.2667L171.667 17.6667H163.933C159.667 17.6667 155.667 18.0667 155.267 18.6ZM116.067 57.9333C115.8 58.6 114.333 59 112.867 59C110.6 59 110.2 58.3333 110.867 55.2667C111.267 53.2667 111.933 49 112.467 45.6667L113.533 39.6667L115 48.3333C115.8 53.1333 116.333 57.4 116.067 57.9333Z" fill="black"/>
<path d="M174.333 30.3333C174.333 40.7333 173.933 43 172.333 43C170.2 43 168.6 46.0667 167 53.2667C166.2 57.5333 166.333 57.6667 170.2 57.6667C174.2 57.6667 174.333 57.8 174.333 63.6667V69.6667H182.333H190.333V63.6667C190.333 57.9333 190.467 57.6667 194.333 57.6667C198.2 57.6667 198.333 57.9333 198.333 63.5333C198.333 70.2 199.4 71 208.467 71H214.333V45V19H210.467C208.333 19 204.733 18.6 202.467 18.2L198.333 17.2667V30.6V43.9333L194.333 43.2667L190.333 42.7333V30.2V17.6667H182.333H174.333V30.3333Z" fill="black"/>
<path d="M218.333 26.8666C218.333 30.5999 219 33.6666 219.667 33.6666C220.467 33.6666 221 40.9999 221 52.9999C221 63.6666 221.533 72.3333 222.2 72.3333C224.733 72.3333 253.8 77.5333 256.2 78.4666C258.333 79.2666 258.467 78.7333 257.667 72.8666C256.333 64.4666 255.533 63.5333 247.933 62.4666C238.467 60.9999 237 60.3333 237 57.3999C237 54.5999 236.867 54.5999 250.733 57.2666C254.733 58.0666 255 57.2666 253.533 49.9333C252.733 46.0666 252.067 45.6666 244.867 44.1999C239 42.9999 237 42.0666 237 40.3333C237 36.8666 237.933 36.5999 244.467 37.9333C247.8 38.7333 250.733 38.9999 251.133 38.5999C251.4 38.3333 251.133 34.9999 250.333 31.3999L248.867 24.5999L241.267 23.1333C237.133 22.3333 230.2 21.2666 226.067 20.8666L218.333 19.9333V26.8666Z" fill="black"/>
<path d="M139.666 76.1333C127.133 77.3333 95.666 82.2666 92.3327 83.5999C90.7327 84.1333 88.066 94.2666 89.266 95.3333C89.3994 95.4666 95.3994 94.6666 102.333 93.1999C109.266 91.8666 120.733 90.1333 127.666 89.1999C140.066 87.7333 140.466 87.5999 147.533 81.1999C151.533 77.5999 154.333 74.7999 153.533 74.7999C152.866 74.9333 146.599 75.5999 139.666 76.1333Z" fill="black"/>
<path d="M199.133 77.5333C201.933 79.5333 205.533 82.6 206.867 84.2C208.467 85.9333 211 87 213.8 87C218.6 87 255.267 93.1333 259 94.6C261.133 95.4 261.267 94.8666 260.467 89.5333C259.933 86.3333 258.867 83.4 258.067 82.8666C255.133 81 206.2 73.6666 196.467 73.6666C194.6 73.6666 195.267 74.7333 199.133 77.5333Z" fill="black"/>
</svg>
